<?xml version="1.0" encoding="utf-8"?>
<!-- Generator: Adobe Illustrator 23.0.5, SVG Export Plug-In . SVG Version: 6.00 Build 0)  -->
<svg version="1.1" id="레이어_1" xmlns="http://www.w3.org/2000/svg" xmlns:xlink="http://www.w3.org/1999/xlink" x="0px"
	 y="0px" viewBox="0 0 50 50" style="enable-background:new 0 0 50 50;" xml:space="preserve">
<style type="text/css">
	.st0{fill:#FFCE00;stroke:#000000;stroke-linecap:round;stroke-linejoin:round;stroke-miterlimit:10;}
	.st1{fill:#DDB300;}
	.st2{fill:#FF3C00;stroke:#000000;stroke-linecap:round;stroke-linejoin:round;stroke-miterlimit:10;}
	.st3{fill:#E5E5E5;stroke:#000000;stroke-linecap:round;stroke-linejoin:round;stroke-miterlimit:10;}
</style>
<path class="st0" d="M19.6,18.4L9.5,27.8c0,0-2.8,4.4,2.3,5.3l6.2,8.1h27.4V26.2H40l-7.6-7.6L19.6,18.4z"/>
<path class="st1" d="M23.6,34.8l1.2-0.8c1.2-0.8,1.3-2.5,0.4-3.5l-1.3-1.4l-5.7,5.5L23.6,34.8z"/>
<polygon class="st2" points="8.7,34.8 13.2,39.4 41.1,12.4 35.9,7.2 "/>
<polygon class="st3" points="31.3,11.9 36.4,17 41.1,12.4 35.9,7.2 "/>
<polygon class="st3" points="8.7,34.8 13.3,39.3 5.7,42.8 "/>
<path class="st0" d="M22.7,41.2h-5.3c-0.6,0-2.4-1.6-2.3-3.2c0.1-1.6,1.9-3.2,2.5-3.2h6"/>
</svg>
