<?xml version="1.0" encoding="utf-8"?>
<!-- Generator: Adobe Illustrator 23.0.5, SVG Export Plug-In . SVG Version: 6.00 Build 0)  -->
<svg version="1.1" id="레이어_1" xmlns="http://www.w3.org/2000/svg" xmlns:xlink="http://www.w3.org/1999/xlink" x="0px"
	 y="0px" viewBox="0 0 50 50" style="enable-background:new 0 0 50 50;" xml:space="preserve">
<style type="text/css">
	.st0{fill:#FFCE00;stroke:#000000;stroke-miterlimit:10;}
	.st1{stroke:#000000;stroke-linecap:round;stroke-linejoin:round;stroke-miterlimit:10;}
	.st2{fill:#FFFFFF;}
	.st3{fill:#FF3C00;}
</style>
<circle class="st0" cx="25" cy="25" r="20"/>
<g>
	<path class="st1" d="M12,17c0,0,8,2,11,5c0,0-5,4-11,6c0,0,6-4,8-6C20,22,19,21,12,17z"/>
	<path class="st1" d="M38,17c0,0-8,2-11,5c0,0,5,4,11,6c0,0-6-4-8-6C30,22,31,21,38,17z"/>
</g>
<g>
	<path class="st1" d="M37,30.6H25H13c0.5,6,6.3,10.2,12,10.2S36.5,36.6,37,30.6z"/>
	<path class="st2" d="M25,31.2H13.6c0,0,0.3,2,1.3,3.5H25h10.1c1-1.5,1.3-3.5,1.3-3.5H25z"/>
	<g>
		<path class="st3" d="M20.7,39.4c2.2,0.9,4.3,0.8,4.3,0.8l0-3.7C21.5,36.4,20.7,39.4,20.7,39.4z"/>
		<path class="st3" d="M25,36.6l0,3.7c0,0,2.1,0.1,4.3-0.8C29.3,39.4,28.5,36.4,25,36.6z"/>
	</g>
</g>
</svg>
